<?xml version="1.0" encoding="UTF-8"?>
<svg id="Capa_2" data-name="Capa 2" xmlns="http://www.w3.org/2000/svg" viewBox="0 0 339.39 131.33">
  <defs>
    <style>
      .cls-1 {
        stroke-width: 0px;
      }
    </style>
  </defs>
  <g id="Capa_2-2" data-name="Capa 2">
    <g>
      <path class="cls-1" d="m105.09,102.9c-1.1,3.23-2.13,6.34-2.82,9.21h-.07c-.66-2.9-1.58-5.9-2.64-9.24l-3.85-12.18h-3.45l8.07,24.72h3.52l8.84-24.72h-3.41l-4.18,12.21Z"/>
      <path class="cls-1" d="m132.71,90.29c-6.6,0-11.48,5.13-11.48,12.98s4.58,12.54,11.11,12.54,11.48-4.51,11.48-13.02c0-7.34-4.36-12.51-11.11-12.51Zm-.18,22.92c-5.02,0-7.88-4.73-7.88-10.01s2.64-10.31,7.92-10.31,7.89,5.13,7.89,10.05c0,5.61-2.86,10.27-7.92,10.27Z"/>
      <polygon class="cls-1" points="157.83 112.62 171.47 92.63 171.47 90.69 154.79 90.69 154.79 93.37 167.33 93.37 167.33 93.48 153.61 113.54 153.61 115.41 171.66 115.41 171.66 112.73 157.83 112.73 157.83 112.62"/>
      <path class="cls-1" d="m249.09,68.01c2.8-.82,4.9-1.41,6.53-1.87-6.99,12.71-13.99,25.44-15.71,28.6-.25.47-.41,1.17-.26,1.65,1.33,4.32,5.09,7.04,9.88,7.21.39.01.9-.3,1.19-.61,6.84-7.43,39.14-42.64,43.63-47.57.07-.08.08-.22.13-.34-13.41-2.89-17.55-6.73-24.49-14.79-.23.32-.44.55-.59.81-2.09,3.79-5.41,9.82-9.09,16.51-3.11,1.04-6.65,2.18-10.31,3.27-1.3.39-3.61,1.08-6.69,1.91-2.48.67-5.05,1.33-7.7,1.97-2.66.64-5.08,1.2-7.28,1.7-2.2.5-4.04.85-5.52,1.06-1.49.21-2.3.21-2.44,0-.57-.78-1.1-1.75-1.59-2.92-.5-1.17-.96-2.39-1.38-3.67-.21-.57.07-1.13.85-1.7.78-.57,1.66-1.2,2.66-1.91.99-.71,1.93-1.52,2.81-2.44.88-.92,1.33-2.02,1.33-3.29,0-2.27-.64-4-1.91-5.21-1.27-1.2-2.76-1.81-4.46-1.81-2.12,0-3.97.28-5.52.85-1.56.57-2.87,1.29-3.93,2.18-1.06.89-1.84,1.88-2.34,2.98-.5,1.1-.74,2.21-.74,3.35,0,2.65.13,4.93.38,6.85-1.23.57-2.75,1.26-4.58,2.07-2.23.99-4.82,2.06-7.76,3.19-2.94,1.13-6.02,2.2-9.24,3.19-3.22.99-6.45,1.81-9.67,2.44-3.22.64-6.29.96-9.19.96h-3.56c-1.38,0-2.69-.11-3.93-.32-1.24-.21-2.28-.64-3.13-1.28-.85-.64-1.28-1.59-1.28-2.87,1.13-.14,2.55-.32,4.25-.53,1.7-.21,3.47-.53,5.31-.96,1.84-.42,3.68-.96,5.52-1.59,1.84-.64,3.49-1.43,4.94-2.39,1.45-.96,2.62-2.07,3.51-3.35.88-1.27,1.33-2.73,1.33-4.36,0-1.42-.28-2.67-.85-3.77-.57-1.1-1.33-2.02-2.28-2.76-.96-.74-2.05-1.33-3.29-1.75-1.24-.42-2.5-.64-3.77-.64-2.62,0-5.42.69-8.39,2.07-2.98,1.38-5.74,3.19-8.29,5.42-2.17,1.9-4.02,3.99-5.54,6.27-2.91.6-5.53.9-7.84.9-3.47,0-6.5-.49-9.08-1.49-2.59-.99-4.8-2.09-6.64-3.29-1.84-1.2-3.38-2.3-4.62-3.29-1.24-.99-2.32-1.49-3.24-1.49-1.28,0-2.37.25-3.29.74-.92.5-1.38.67-1.38.53-.64-1.27-1.22-2.23-1.75-2.87-.53-.64-1.65-.96-3.35-.96-.99,0-1.97.27-2.92.8-.96.53-1.84,1.21-2.66,2.02-.81.82-1.56,1.66-2.23,2.55-.67.89-1.26,1.72-1.75,2.5-.36.57-.94,1.43-1.75,2.6-.16.23-.33.47-.49.72-7.33,4.68-14.72,8.88-22.19,12.61-3.26,1.63-6.68,3.22-10.25,4.78-3.58,1.56-7.21,2.94-10.89,4.14-3.68,1.2-7.33,2.18-10.94,2.92-3.61.74-7.08,1.12-10.41,1.12-5.88,0-10.24-.64-13.07-1.91-2.83-1.28-4.36-2.87-4.57-4.78-.21-1.91.8-4,3.03-6.27,2.23-2.27,5.4-4.39,9.51-6.37,2.55-1.2,5.01-2.3,7.38-3.29,2.37-.99,4.48-2,6.32-3.03,1.84-1.03,3.31-2.14,4.41-3.35,1.1-1.2,1.65-2.58,1.65-4.14,0-1.06-.51-2.12-1.54-3.19-1.03-1.06-2.32-2.07-3.88-3.03-1.56-.96-3.22-1.91-4.99-2.87-1.77-.96-3.44-1.86-4.99-2.71-1.56-.85-2.85-1.68-3.88-2.5-1.03-.81-1.54-1.57-1.54-2.28,0-1.34.92-2.88,2.76-4.62,1.84-1.73,4.28-3.54,7.33-5.42,3.04-1.88,6.46-3.72,10.25-5.52,3.79-1.81,7.67-3.43,11.63-4.89,3.97-1.45,7.79-2.62,11.47-3.51,3.68-.88,6.91-1.33,9.67-1.33.57,0,1.19.04,1.86.11.67.07,1.31.21,1.91.42.6.21,1.12.51,1.54.9.43.39.64.9.64,1.54,0,1.06-.46,2.34-1.38,3.82-.92,1.49-2.09,3.08-3.51,4.78-1.42,1.7-2.99,3.45-4.73,5.26-1.74,1.81-3.42,3.56-5.05,5.26-1.63,1.7-3.12,3.28-4.46,4.73-1.35,1.45-2.34,2.71-2.97,3.77-.57.78-.85,1.63-.85,2.55,0,1.21.48,2.32,1.43,3.35.96,1.03,2.03,1.54,3.24,1.54.78,0,1.47-.27,2.07-.8.6-.53,1.61-1.61,3.03-3.24,1.63-1.98,3.68-4.32,6.16-7.01,2.48-2.69,4.87-5.52,7.17-8.5,2.3-2.97,4.27-5.95,5.9-8.92,1.63-2.98,2.44-5.74,2.44-8.29,0-2.76-1.24-5.05-3.72-6.85-2.48-1.81-5.7-2.71-9.67-2.71s-8.34.53-13.12,1.59c-4.78,1.06-9.58,2.48-14.4,4.25-4.82,1.77-9.49,3.81-14.02,6.11-4.53,2.3-8.55,4.69-12.06,7.17-3.51,2.48-6.32,4.96-8.45,7.44-2.12,2.48-3.19,4.82-3.19,7.01,0,1.35.48,2.66,1.43,3.93.96,1.28,2.16,2.48,3.61,3.61,1.45,1.13,3.03,2.2,4.73,3.19,1.7.99,3.27,1.88,4.73,2.66,1.45.78,2.66,1.45,3.61,2.02.96.57,1.43,1.03,1.43,1.38,0,.5-.55,1.08-1.65,1.75-1.1.67-2.43,1.35-3.98,2.02-1.56.67-3.17,1.35-4.83,2.02-1.66.67-3.06,1.29-4.2,1.86-4.6,2.27-8.2,4.73-10.78,7.38-2.59,2.66-4.3,5.3-5.15,7.91-.85,2.62-.88,5.14-.11,7.54.78,2.41,2.18,4.53,4.2,6.37,2.02,1.84,4.62,3.31,7.81,4.41,3.19,1.1,6.8,1.65,10.84,1.65,5.31,0,11.08-.76,17.32-2.28,6.23-1.52,12.5-3.54,18.8-6.06,6.3-2.51,12.45-5.42,18.43-8.71,2.22-1.22,4.36-2.46,6.42-3.7-.48.92-.91,1.78-1.27,2.59-.57,1.28-.85,2.23-.85,2.87,0,.85.37,1.52,1.11,2.02.74.5,1.51.74,2.28.74,1.35,0,2.6-.28,3.77-.85,1.17-.57,2.25-1.28,3.24-2.12.99-.85,1.91-1.79,2.76-2.82.85-1.03,1.63-2,2.34-2.92.99-1.2,2.14-2.5,3.45-3.88,1.31-1.38,2.66-2.66,4.04-3.82,1.38-1.17,2.69-2.12,3.93-2.87,1.24-.74,2.32-1.12,3.24-1.12,1.06,0,2.37.36,3.93,1.06,1.56.71,3.35,1.49,5.36,2.34,2.02.85,4.23,1.63,6.64,2.34,2.41.71,5.03,1.06,7.86,1.06,2.3,0,4.68-.32,7.15-.92-.02.31-.04.62-.04.92,0,2.62.58,4.75,1.75,6.37,1.17,1.63,2.71,2.89,4.62,3.77,1.91.89,4.04,1.47,6.37,1.75,2.34.28,4.67.42,7.01.42,1.49,0,3.72-.21,6.69-.64,2.97-.43,6.23-1.04,9.77-1.86,3.54-.81,7.21-1.81,11-2.97,3.79-1.17,7.21-2.48,10.25-3.93,2.85-1.36,5.23-2.83,7.15-4.4.34,1.05.72,1.97,1.14,2.76-1.98.71-3.77,1.65-5.36,2.81-1.59,1.17-2.98,2.39-4.14,3.67-1.17,1.27-2.07,2.6-2.71,3.98-.64,1.38-.96,2.64-.96,3.77,0,2.55.82,4.74,2.44,6.59,1.63,1.84,3.72,2.76,6.27,2.76,1.77,0,3.58-.3,5.42-.9,1.84-.6,3.51-1.49,4.99-2.66,1.49-1.17,2.73-2.6,3.72-4.3.99-1.7,1.59-3.68,1.81-5.95.14-1.06.19-2.09.16-3.08-.04-.99.34-1.66,1.12-2.02.64-.28,1.95-.65,3.93-1.12,1.98-.46,4.3-1.01,6.96-1.65,2.66-.64,5.43-1.33,8.34-2.07,2.99-.76,3.5-1.01,8.02-2.34Zm21.24-13.03c3.39-.94,6.9,1.05,7.84,4.44.94,3.39-1.05,6.9-4.44,7.84-3.39.94-6.9-1.05-7.84-4.44-.94-3.39,1.05-6.9,4.44-7.84Zm-109.68,2.09c.78-.53,1.59-1.03,2.44-1.49.85-.46,1.72-.85,2.6-1.17.88-.32,1.65-.48,2.28-.48.21,0,.44.02.69.05.25.04.37.23.37.58,0,.64-.44,1.2-1.33,1.7-.89.5-1.91.92-3.08,1.27-1.17.36-2.3.62-3.4.8-1.1.18-1.9.27-2.39.27.42-.49,1.03-1.01,1.81-1.54Zm48.23,25.28c-.64.88-1.28,1.33-1.91,1.33-.85,0-1.27-.21-1.27-.64,0-.57.44-1.19,1.33-1.86.88-.67,1.72-1.12,2.5-1.33.21.78,0,1.61-.64,2.5Z"/>
      <path class="cls-1" d="m339.31,92.51c-.47-6.2-2.39-11.91-6.42-16.75-5.6-6.71-12.75-9.39-21.31-7.52-12.44,2.72-21.48,9.94-27.51,21.14-4.44,8.25-9.74,15.95-15.95,22.98-2.46,2.78-4.98,5.55-7.77,7.98-2.81,2.44-6.28,3.61-10.07,3.62-5.46,0-8.41-3.11-8.14-8.58.14-2.96,1.04-5.7,2.46-8.43-2.19-1.33-4.27-2.59-6.35-3.86-7.17,9.95-5.04,22.53,5.9,27.17,2.96,1.26,6.09,1.27,9.22.65,7.19-1.42,12.95-5.36,18.19-10.26,4.49-4.21,7.75-9.36,11.06-14.46,3.12-4.81,5.92-9.84,9.03-14.66,4.24-6.58,9.99-11.53,17.3-14.35,3.38-1.3,6.59-1.54,9.52-.8,5.16,1.31,8.06,5.27,9.31,7.01,3.03,4.21,3.81,8.75,3.93,11.97.07,2.05,1.74,3.67,3.79,3.7.56,0,1.12.02,1.69.03,1.19.02,2.18-.93,2.2-2.13.03-1.51.06-2.99-.06-4.46Z"/>
      <path class="cls-1" d="m286.54,21.87c9.69,9.38,21.33,14.01,34.78,14.21.21,0,.42-.02.84-.04,1.97-10.55,1.08-20.33-6.88-28.25-6.26-6.21-14.07-8.35-22.74-7.66-4.37.35-8.53,1.55-12.33,3.73-1.37.78-2.48,2.05-3.57,3.23-.24.25-.01,1.13.23,1.6,2.52,4.91,5.71,9.34,9.67,13.18Z"/>
      <path class="cls-1" d="m281.27,42.79c3.4,2.14,6.85,4.36,10.55,5.84,9.54,3.81,17.94,1.32,25.27-5.5.65-.61,1.23-1.29,1.97-2.07-19.84-2.83-35.26-12.37-46.36-28.84-1.26,1.84-2.43,6.03-2.55,9.11-.36,9.26,3.26,16.51,11.11,21.46Z"/>
      <path class="cls-1" d="m273.12,65.02c2.16-.6,3.43-2.84,2.83-5-.6-2.16-2.84-3.43-5-2.83-2.16.6-3.43,2.84-2.83,5,.6,2.16,2.84,3.43,5,2.83Z"/>
    </g>
  </g>
</svg>